<?xml version="1.0" standalone="no"?>
<!DOCTYPE svg PUBLIC "-//W3C//DTD SVG 20010904//EN"
 "http://www.w3.org/TR/2001/REC-SVG-20010904/DTD/svg10.dtd">
<svg version="1.0" xmlns="http://www.w3.org/2000/svg"
 width="260.000000pt" height="260.000000pt" viewBox="0 0 260.000000 260.000000"
 preserveAspectRatio="xMidYMid meet">
<metadata>
Created by potrace 1.11, written by Peter Selinger 2001-2013
</metadata>
<g transform="translate(0.000000,260.000000) scale(0.100000,-0.100000)"
fill="#000000" stroke="none">
<path d="M1094 2509 c-2 -5 -13 -41 -24 -80 -24 -93 -46 -115 -111 -110 -8 0
-42 26 -75 56 -32 30 -63 55 -68 55 -10 0 -44 -21 -197 -120 -64 -41 -124 -80
-134 -85 -16 -10 -15 -16 10 -98 24 -75 26 -92 15 -112 -23 -43 -50 -50 -145
-35 -47 7 -86 11 -88 9 -2 -2 -19 -40 -39 -84 -20 -44 -53 -116 -73 -160 -61
-133 -60 -124 -23 -154 79 -64 108 -99 108 -128 0 -41 -27 -65 -110 -99 l-71
-29 5 -50 c3 -27 8 -61 10 -75 2 -14 7 -47 11 -73 4 -27 8 -56 9 -65 2 -10 6
-42 10 -72 4 -30 10 -60 14 -66 4 -6 32 -14 62 -17 96 -12 115 -17 133 -38 28
-34 21 -72 -28 -146 -25 -37 -45 -70 -45 -73 0 -4 220 -262 255 -298 10 -11
25 -7 83 22 84 42 111 44 148 12 27 -22 28 -27 26 -115 0 -50 0 -91 1 -91 2 0
88 -25 192 -55 103 -30 192 -55 196 -55 4 0 28 34 54 75 48 78 71 93 120 81
17 -4 38 -27 63 -67 20 -33 42 -68 48 -77 13 -17 -1 -20 351 84 l52 16 -1 89
c-1 81 1 92 22 114 32 34 67 32 152 -11 58 -29 73 -33 83 -22 11 11 201 231
243 280 14 16 11 25 -31 88 -51 75 -58 114 -29 147 20 24 39 30 112 38 77 8
90 13 91 38 0 12 2 33 4 47 3 14 10 61 16 105 6 44 12 90 14 101 2 12 6 46 10
75 l6 54 -68 28 c-89 37 -103 48 -110 91 -5 32 -1 40 33 74 22 21 54 49 73 64
l33 25 -17 39 c-43 95 -56 125 -99 217 -25 55 -46 103 -46 108 0 12 -10 11
-102 -3 -135 -20 -164 15 -123 151 14 47 24 85 22 87 -13 12 -334 214 -340
214 -5 0 -35 -24 -68 -52 -68 -61 -93 -70 -131 -51 -34 16 -40 29 -63 119
l-18 70 -204 1 c-112 0 -206 -3 -209 -8z m358 -508 c264 -61 465 -251 542
-510 l14 -47 -43 -45 -42 -44 -669 0 c-588 0 -669 2 -669 15 -1 24 24 143 35
165 5 11 19 43 31 70 72 165 247 321 422 377 108 34 276 43 379 19z m501 -929
c22 -20 17 -60 -14 -103 -11 -16 -17 -29 -14 -29 10 0 -94 -131 -134 -169 -20
-18 -65 -52 -101 -75 -95 -62 -155 -85 -285 -111 -37 -7 -156 -7 -209 0 -244
33 -466 208 -561 442 l-24 58 457 5 c667 7 862 3 885 -18z"/>
</g>
</svg>
